<svg width="22" height="24" viewBox="0 0 22 24" fill="none" xmlns="http://www.w3.org/2000/svg">
<path d="M15.499 0C14.2195 0.0884995 12.724 0.907495 11.8525 1.97399C11.0575 2.94148 10.4035 4.37847 10.6585 5.77497C12.0565 5.81847 13.501 4.97997 14.338 3.89548C15.121 2.88598 15.7135 1.45799 15.499 0Z" fill="white"/>
<path d="M20.5553 8.05186C19.3268 6.51137 17.6003 5.61737 15.9698 5.61737C13.8174 5.61737 12.9069 6.64786 11.4114 6.64786C9.86938 6.64786 8.69789 5.62037 6.8364 5.62037C5.00791 5.62037 3.06092 6.73786 1.82643 8.64885C0.0909416 11.3398 0.38794 16.3993 3.20042 20.7088C4.20692 22.2508 5.55091 23.9848 7.3089 23.9998C8.87339 24.0148 9.31439 22.9963 11.4339 22.9858C13.5534 22.9738 13.9554 24.0133 15.5169 23.9968C17.2763 23.9833 18.6938 22.0618 19.7003 20.5198C20.4218 19.4143 20.6903 18.8578 21.2498 17.6098C17.1803 16.0603 16.5278 10.2733 20.5553 8.05186Z" fill="white"/>
</svg>
