<svg width="18" height="16" viewBox="0 0 18 16" fill="none" xmlns="http://www.w3.org/2000/svg">
<path d="M16.3671 1.84172C15.9415 1.41589 15.4361 1.0781 14.8799 0.847626C14.3237 0.617158 13.7275 0.498535 13.1254 0.498535C12.5234 0.498535 11.9272 0.617158 11.371 0.847626C10.8147 1.0781 10.3094 1.41589 9.88376 1.84172L9.00043 2.72506L8.11709 1.84172C7.25735 0.98198 6.09129 0.498981 4.87542 0.498981C3.65956 0.498981 2.4935 0.98198 1.63376 1.84172C0.774015 2.70147 0.291016 3.86753 0.291016 5.08339C0.291016 6.29925 0.774015 7.46531 1.63376 8.32506L2.51709 9.20839L9.00043 15.6917L15.4838 9.20839L16.3671 8.32506C16.7929 7.89943 17.1307 7.39407 17.3612 6.83785C17.5917 6.28164 17.7103 5.68546 17.7103 5.08339C17.7103 4.48132 17.5917 3.88514 17.3612 3.32893C17.1307 2.77271 16.7929 2.26735 16.3671 1.84172Z" fill="#162A41"/>
</svg>
